<svg width="80" height="80" viewBox="0 0 80 80" fill="none" xmlns="http://www.w3.org/2000/svg">
  <!-- Dark circle background -->
  <circle cx="40" cy="40" r="40" fill="#0F172A"/>
  
  <!-- Gradient for flame effect -->
  <defs>
    <radialGradient id="flameGradient" cx="0.5" cy="0.5" r="0.5" gradientUnits="objectBoundingBox">
      <stop offset="0%" stop-color="#FFFFFF"/>
      <stop offset="30%" stop-color="#FFDD4A"/>
      <stop offset="70%" stop-color="#FF8C42"/>
      <stop offset="100%" stop-color="#FF5470"/>
    </radialGradient>
  </defs>
  
  <!-- Rocket elements -->
  <g transform="translate(40, 40)">
    <!-- Main rocket body - sleek SpaceX style -->
    <path d="M-6,-30 L6,-30 Q8,-30 8,-27 L8,14 Q8,19 4,19 L-4,19 Q-8,19 -8,14 L-8,-27 Q-8,-30 -6,-30 Z" fill="#FFFFFF"/>
    
    <!-- Rocket nose -->
    <path d="M-6,-30 Q-6,-36 0,-38 Q6,-36 6,-30 Z" fill="#FFFFFF"/>
    
    <!-- Rocket detail lines - cleaner and more minimal -->
    <line x1="-8" y1="-15" x2="8" y2="-15" stroke="#3E63DD" stroke-width="0.5"/>
    <line x1="-8" y1="0" x2="8" y2="0" stroke="#3E63DD" stroke-width="0.5"/>
    
    <!-- SpaceX-style grid fins - more angular and precise -->
    <path d="M-8,-10 L-14,-5 L-14,-15 Z" fill="#3E63DD"/>
    <path d="M8,-10 L14,-5 L14,-15 Z" fill="#3E63DD"/>
    
    <!-- Rocket engine section - more detailed -->
    <path d="M-4,19 L4,19 L4.5,22 L-4.5,22 Z" fill="#3E63DD"/>
    
    <!-- Engine nozzle -->
    <path d="M-2,22 L2,22 L3,24 L-3,24 Z" fill="#0F172A"/>
    
    <!-- SpaceX-style flame -->
    <path d="M-3,24 C-3.5,28 -3,34 0,42 C3,34 3.5,28 3,24 Z" fill="url(#flameGradient)"/>
    
    <!-- Subtle glow effect around the flame -->
    <ellipse cx="0" cy="30" rx="6" ry="9" fill="#FF5470" opacity="0.15"/>
  </g>
</svg>