<svg width="300" height="100" viewBox="0 0 300 100" fill="none" xmlns="http://www.w3.org/2000/svg">
  <!-- Dark circle background -->
  <circle cx="50" cy="50" r="40" fill="#0F172A"/>
  
  <!-- Gradient for flame effect -->
  <defs>
    <radialGradient id="flameGradient" cx="0.5" cy="0.5" r="0.5" gradientUnits="objectBoundingBox">
      <stop offset="0%" stop-color="#FFFFFF"/>
      <stop offset="30%" stop-color="#FFDD4A"/>
      <stop offset="70%" stop-color="#FF8C42"/>
      <stop offset="100%" stop-color="#FF5470"/>
    </radialGradient>
  </defs>
  
  <!-- Rocket elements -->
  <g transform="translate(50, 47)">
    <!-- Main rocket body - slimmer, more like SpaceX Falcon 9 -->
    <path d="M-6,-25 L6,-25 Q8,-25 8,-22 L8,15 Q8,20 4,20 L-4,20 Q-8,20 -8,15 L-8,-22 Q-8,-25 -6,-25 Z" fill="#FFFFFF"/>
    
    <!-- Rocket nose -->
    <path d="M-6,-25 Q-6,-33 0,-35 Q6,-33 6,-25 Z" fill="#FFFFFF"/>
    
    <!-- Rocket detail lines -->
    <line x1="-8" y1="-5" x2="8" y2="-5" stroke="#3E63DD" stroke-width="0.5"/>
    <line x1="-8" y1="0" x2="8" y2="0" stroke="#3E63DD" stroke-width="0.5"/>
    <line x1="-8" y1="5" x2="8" y2="5" stroke="#3E63DD" stroke-width="0.5"/>
    <line x1="-8" y1="10" x2="8" y2="10" stroke="#3E63DD" stroke-width="0.5"/>
    
    <!-- SpaceX-style grid fins -->
    <path d="M-8,-15 L-14,-10 L-14,-20 Z" fill="#3E63DD"/>
    <path d="M8,-15 L14,-10 L14,-20 Z" fill="#3E63DD"/>
    
    <!-- Rocket engine section -->
    <path d="M-4,20 L4,20 L4,22 L-4,22 Z" fill="#3E63DD"/>
    
    <!-- Engine details -->
    <circle cx="-2" cy="21" r="1" fill="#0F172A"/>
    <circle cx="2" cy="21" r="1" fill="#0F172A"/>
    
    <!-- Falcon 9 style flame -->
    <path d="M-3,22 C-4,25 -4,35 0,40 C4,35 4,25 3,22 Z" fill="url(#flameGradient)"/>
    
    <!-- Flight path -->
    <path d="M-20,-30 C-15,-15 -10,-5 0,0 C10,5 15,15 20,30" stroke="#FFFFFF" stroke-width="1" stroke-opacity="0.3" stroke-dasharray="2 2" fill="none"/>
  </g>
  
  <!-- Text "COHETE LAB" -->
  <text x="110" y="60" font-family="Arial, sans-serif" font-size="30" font-weight="800" fill="#0F172A">COHETE LAB</text>
</svg>