<svg width="800" height="500" viewBox="0 0 800 500" fill="none" xmlns="http://www.w3.org/2000/svg">
<rect width="800" height="500" rx="8" fill="white"/>
<rect x="40" y="40" width="720" height="60" rx="8" fill="#0F172A"/>
<text x="70" y="75" fill="white" font-family="Arial" font-weight="bold" font-size="18">캠페인 관리</text>
<rect x="600" y="55" width="140" height="30" rx="15" fill="#22C55E"/>
<text x="625" y="75" fill="white" font-family="Arial" font-weight="bold" font-size="14">+ 새 캠페인</text>
<rect x="40" y="120" width="720" height="80" rx="8" fill="#F8FAFF" stroke="#E5E7EB" stroke-width="2"/>
<text x="70" y="155" fill="#0F172A" font-family="Arial" font-weight="bold" font-size="18">2025 여름 컬렉션 캠페인</text>
<rect x="70" y="170" width="60" height="20" rx="10" fill="#22C55E"/>
<text x="85" y="185" fill="white" font-family="Arial" font-weight="bold" font-size="12">진행중</text>
<text x="600" y="175" fill="#6B7280" font-family="Arial" font-size="14">2025.05.01 - 2025.06.30</text>
<rect x="40" y="220" width="350" height="260" rx="8" fill="white" stroke="#E5E7EB" stroke-width="2"/>
<text x="60" y="250" fill="#0F172A" font-family="Arial" font-weight="bold" font-size="16">참여 인플루언서</text>
<rect x="60" y="270" width="310" height="1" fill="#E5E7EB"/>
<rect x="60" y="290" width="310" height="40" rx="8" fill="#F8FAFF"/>
<circle cx="80" cy="310" r="15" fill="white" stroke="#E5E7EB" stroke-width="2"/>
<text x="105" y="315" fill="#0F172A" font-family="Arial" font-size="14">김영희</text>
<rect x="280" y="300" width="70" height="20" rx="10" fill="#22C55E"/>
<text x="295" y="315" fill="white" font-family="Arial" font-weight="bold" font-size="12">완료</text>
<rect x="60" y="340" width="310" height="40" rx="8" fill="#F8FAFF"/>
<circle cx="80" cy="360" r="15" fill="white" stroke="#E5E7EB" stroke-width="2"/>
<text x="105" y="365" fill="#0F172A" font-family="Arial" font-size="14">이철수</text>
<rect x="280" y="350" width="70" height="20" rx="10" fill="#F59E0B"/>
<text x="295" y="365" fill="white" font-family="Arial" font-weight="bold" font-size="12">진행중</text>
<rect x="60" y="390" width="310" height="40" rx="8" fill="#F8FAFF"/>
<circle cx="80" cy="410" r="15" fill="white" stroke="#E5E7EB" stroke-width="2"/>
<text x="105" y="415" fill="#0F172A" font-family="Arial" font-size="14">박지민</text>
<rect x="280" y="400" width="70" height="20" rx="10" fill="#6B7280"/>
<text x="295" y="415" fill="white" font-family="Arial" font-weight="bold" font-size="12">대기중</text>
<rect x="410" y="220" width="350" height="120" rx="8" fill="white" stroke="#E5E7EB" stroke-width="2"/>
<text x="430" y="250" fill="#0F172A" font-family="Arial" font-weight="bold" font-size="16">캠페인 성과</text>
<rect x="430" y="270" width="310" height="1" fill="#E5E7EB"/>
<rect x="430" y="290" width="90" height="30" rx="4" fill="#F8FAFF"/>
<text x="455" y="310" fill="#6B7280" font-family="Arial" font-size="14">노출</text>
<text x="445" y="330" fill="#0F172A" font-family="Arial" font-weight="bold" font-size="18">150K</text>
<rect x="540" y="290" width="90" height="30" rx="4" fill="#F8FAFF"/>
<text x="562" y="310" fill="#6B7280" font-family="Arial" font-size="14">참여</text>
<text x="555" y="330" fill="#0F172A" font-family="Arial" font-weight="bold" font-size="18">15K</text>
<rect x="650" y="290" width="90" height="30" rx="4" fill="#F8FAFF"/>
<text x="675" y="310" fill="#6B7280" font-family="Arial" font-size="14">전환</text>
<text x="670" y="330" fill="#0F172A" font-family="Arial" font-weight="bold" font-size="18">800</text>
<rect x="410" y="360" width="350" height="120" rx="8" fill="white" stroke="#E5E7EB" stroke-width="2"/>
<text x="430" y="390" fill="#0F172A" font-family="Arial" font-weight="bold" font-size="16">콘텐츠 일정</text>
<rect x="430" y="410" width="310" height="1" fill="#E5E7EB"/>
<rect x="430" y="430" width="20" height="20" rx="4" fill="#22C55E"/>
<text x="460" y="445" fill="#0F172A" font-family="Arial" font-size="14">게시 완료 (2/5)</text>
<rect x="600" y="430" width="70" height="20" rx="10" fill="#F3F4F6"/>
<text x="615" y="445" fill="#6B7280" font-family="Arial" font-size="12">40%</text>
</svg>