<svg width="300" height="100" viewBox="0 0 300 100" fill="none" xmlns="http://www.w3.org/2000/svg">
  <!-- Dark circle background -->
  <circle cx="50" cy="50" r="40" fill="#0F172A"/>
  
  <!-- Rocket elements -->
  <g transform="translate(50, 50)">
    <!-- Main rocket body -->
    <path d="M-5,-30 L5,-30 L8,-15 L8,15 L0,25 L-8,15 L-8,-15 L-5,-30 Z" fill="#3E63DD"/>
    
    <!-- Rocket nose -->
    <path d="M-5,-30 C-5,-35 5,-35 5,-30 L-5,-30 Z" fill="#3E63DD"/>
    
    <!-- Rocket window -->
    <circle cx="0" cy="-10" r="5" fill="white" opacity="0.9"/>
    <circle cx="0" cy="-10" r="3" fill="#7786D3"/>
    
    <!-- Rocket fins -->
    <path d="M-8,5 L-20,15 L-15,0 L-20,-15 L-8,-5 Z" fill="#FF5470"/>
    <path d="M8,5 L20,15 L15,0 L20,-15 L8,-5 Z" fill="#FF8C42"/>
    
    <!-- Rocket flame -->
    <path d="M-6,25 L0,40 L6,25" fill="#FF5470"/>
    <path d="M-4,25 L0,35 L4,25" fill="#FFDD4A"/>
    <path d="M-2,25 L0,30 L2,25" fill="#FF8C42"/>
    
    <!-- Orbital path line -->
    <ellipse cx="0" cy="0" rx="25" ry="25" stroke="#FFFFFF" stroke-width="1.5" stroke-opacity="0.3" stroke-dasharray="2 2" fill="none" transform="rotate(45)"/>
    
    <!-- Stars -->
    <circle cx="-15" cy="-20" r="1" fill="white"/>
    <circle cx="18" cy="-12" r="1" fill="white"/>
    <circle cx="12" cy="20" r="1" fill="white"/>
    <circle cx="-20" cy="10" r="1" fill="white"/>
  </g>
  
  <!-- Text "COHETE LAB" -->
  <text x="110" y="60" font-family="Arial, sans-serif" font-size="30" font-weight="800" fill="#0F172A">COHETE LAB</text>
</svg>