<svg width="800" height="500" viewBox="0 0 800 500" fill="none" xmlns="http://www.w3.org/2000/svg">
<rect width="800" height="500" rx="8" fill="#F8FAFF"/>
<rect x="20" y="20" width="760" height="460" rx="8" fill="white" stroke="#E5E7EB" stroke-width="2"/>
<rect x="20" y="20" width="200" height="460" rx="8" fill="#0F172A"/>
<circle cx="48" cy="48" r="18" fill="#22C55E"/>
<path d="M65 42L52 55L42 45" stroke="white" stroke-width="3" stroke-linecap="round" stroke-linejoin="round"/>
<rect x="90" y="40" width="100" height="16" rx="4" fill="white"/>
<rect x="40" y="100" width="160" height="40" rx="4" fill="#1E293B"/>
<rect x="48" y="115" width="20" height="10" rx="2" fill="#22C55E"/>
<rect x="78" y="112" width="80" height="16" rx="4" fill="white"/>
<rect x="40" y="150" width="160" height="40" rx="4" fill="#1E293B"/>
<rect x="48" y="165" width="20" height="10" rx="2" fill="#6B7CFF"/>
<rect x="78" y="162" width="80" height="16" rx="4" fill="#475569"/>
<rect x="40" y="200" width="160" height="40" rx="4" fill="#1E293B"/>
<rect x="48" y="215" width="20" height="10" rx="2" fill="#6B7CFF"/>
<rect x="78" y="212" width="80" height="16" rx="4" fill="#475569"/>
<rect x="240" y="40" width="520" height="60" rx="8" fill="#F8FAFF"/>
<rect x="260" y="55" width="300" height="30" rx="15" fill="white" stroke="#E5E7EB" stroke-width="2"/>
<rect x="650" y="55" width="90" height="30" rx="15" fill="#22C55E"/>
<rect x="680" y="65" width="40" height="10" rx="2" fill="white"/>
<rect x="240" y="120" width="250" height="340" rx="8" fill="white" stroke="#E5E7EB" stroke-width="2"/>
<rect x="260" y="140" width="120" height="20" rx="4" fill="#0F172A"/>
<rect x="260" y="180" width="210" height="1" fill="#E5E7EB"/>
<circle cx="280" cy="210" r="20" fill="#F8FAFF"/>
<rect x="310" y="200" width="160" height="10" rx="2" fill="#E5E7EB"/>
<rect x="310" y="220" width="120" height="10" rx="2" fill="#E5E7EB"/>
<circle cx="280" cy="260" r="20" fill="#F8FAFF"/>
<rect x="310" y="250" width="160" height="10" rx="2" fill="#E5E7EB"/>
<rect x="310" y="270" width="120" height="10" rx="2" fill="#E5E7EB"/>
<circle cx="280" cy="310" r="20" fill="#F8FAFF"/>
<rect x="310" y="300" width="160" height="10" rx="2" fill="#E5E7EB"/>
<rect x="310" y="320" width="120" height="10" rx="2" fill="#E5E7EB"/>
<circle cx="280" cy="360" r="20" fill="#F8FAFF"/>
<rect x="310" y="350" width="160" height="10" rx="2" fill="#E5E7EB"/>
<rect x="310" y="370" width="120" height="10" rx="2" fill="#E5E7EB"/>
<circle cx="280" cy="410" r="20" fill="#F8FAFF"/>
<rect x="310" y="400" width="160" height="10" rx="2" fill="#E5E7EB"/>
<rect x="310" y="420" width="120" height="10" rx="2" fill="#E5E7EB"/>
<rect x="510" y="120" width="250" height="160" rx="8" fill="white" stroke="#E5E7EB" stroke-width="2"/>
<rect x="530" y="140" width="150" height="20" rx="4" fill="#0F172A"/>
<path d="M530 185H730" stroke="#E5E7EB" stroke-width="1"/>
<rect x="530" y="200" width="210" height="60" rx="8" fill="#F8FAFF"/>
<rect x="550" y="220" width="100" height="20" rx="4" fill="#E5E7EB"/>
<rect x="670" y="220" width="50" height="20" rx="4" fill="#22C55E"/>
<rect x="510" y="300" width="250" height="160" rx="8" fill="white" stroke="#E5E7EB" stroke-width="2"/>
<rect x="530" y="320" width="150" height="20" rx="4" fill="#0F172A"/>
<circle cx="580" cy="380" r="40" stroke="#3E63DD" stroke-width="10"/>
<circle cx="680" cy="380" r="40" stroke="#E5E7EB" stroke-width="10"/>
<rect x="550" y="430" width="60" height="10" rx="2" fill="#E5E7EB"/>
<rect x="650" y="430" width="60" height="10" rx="2" fill="#E5E7EB"/>
</svg>