<?xml version="1.0" encoding="UTF-8"?>
<svg width="100" height="75" viewBox="0 0 100 75" xmlns="http://www.w3.org/2000/svg">
    <!-- 파란색 배경 -->
    <rect width="100" height="75" fill="#003399"/>
    
    <!-- 별 원형 배치 -->
    <g fill="#FFCC00">
        <!-- 12개의 별 -->
        <polygon points="50,15 52.9,24.1 62.5,24.1 54.8,29.8 57.7,38.9 50,33.2 42.3,38.9 45.2,29.8 37.5,24.1 47.1,24.1" transform="rotate(0 50 37.5)"/>
        <polygon points="50,15 52.9,24.1 62.5,24.1 54.8,29.8 57.7,38.9 50,33.2 42.3,38.9 45.2,29.8 37.5,24.1 47.1,24.1" transform="rotate(30 50 37.5)"/>
        <polygon points="50,15 52.9,24.1 62.5,24.1 54.8,29.8 57.7,38.9 50,33.2 42.3,38.9 45.2,29.8 37.5,24.1 47.1,24.1" transform="rotate(60 50 37.5)"/>
        <polygon points="50,15 52.9,24.1 62.5,24.1 54.8,29.8 57.7,38.9 50,33.2 42.3,38.9 45.2,29.8 37.5,24.1 47.1,24.1" transform="rotate(90 50 37.5)"/>
        <polygon points="50,15 52.9,24.1 62.5,24.1 54.8,29.8 57.7,38.9 50,33.2 42.3,38.9 45.2,29.8 37.5,24.1 47.1,24.1" transform="rotate(120 50 37.5)"/>
        <polygon points="50,15 52.9,24.1 62.5,24.1 54.8,29.8 57.7,38.9 50,33.2 42.3,38.9 45.2,29.8 37.5,24.1 47.1,24.1" transform="rotate(150 50 37.5)"/>
        <polygon points="50,15 52.9,24.1 62.5,24.1 54.8,29.8 57.7,38.9 50,33.2 42.3,38.9 45.2,29.8 37.5,24.1 47.1,24.1" transform="rotate(180 50 37.5)"/>
        <polygon points="50,15 52.9,24.1 62.5,24.1 54.8,29.8 57.7,38.9 50,33.2 42.3,38.9 45.2,29.8 37.5,24.1 47.1,24.1" transform="rotate(210 50 37.5)"/>
        <polygon points="50,15 52.9,24.1 62.5,24.1 54.8,29.8 57.7,38.9 50,33.2 42.3,38.9 45.2,29.8 37.5,24.1 47.1,24.1" transform="rotate(240 50 37.5)"/>
        <polygon points="50,15 52.9,24.1 62.5,24.1 54.8,29.8 57.7,38.9 50,33.2 42.3,38.9 45.2,29.8 37.5,24.1 47.1,24.1" transform="rotate(270 50 37.5)"/>
        <polygon points="50,15 52.9,24.1 62.5,24.1 54.8,29.8 57.7,38.9 50,33.2 42.3,38.9 45.2,29.8 37.5,24.1 47.1,24.1" transform="rotate(300 50 37.5)"/>
        <polygon points="50,15 52.9,24.1 62.5,24.1 54.8,29.8 57.7,38.9 50,33.2 42.3,38.9 45.2,29.8 37.5,24.1 47.1,24.1" transform="rotate(330 50 37.5)"/>
    </g>
</svg>