<svg width="500" height="400" xmlns="http://www.w3.org/2000/svg">
  <defs>
    <linearGradient id="globe-gradient" x1="0%" y1="0%" x2="100%" y2="100%">
      <stop offset="0%" stop-color="#3E63DD" />
      <stop offset="100%" stop-color="#6B7CFF" />
    </linearGradient>
  </defs>
  
  <!-- 배경 -->
  <rect width="500" height="400" rx="15" fill="#1A2234" />
  
  <!-- 글로브 -->
  <circle cx="250" cy="200" r="150" fill="url(#globe-gradient)" opacity="0.2" />
  
  <!-- 경도/위도 선 -->
  <ellipse cx="250" cy="200" rx="150" ry="60" stroke="#6B7CFF" stroke-width="1" fill="none" />
  <ellipse cx="250" cy="200" rx="120" ry="48" stroke="#6B7CFF" stroke-width="1" fill="none" />
  <ellipse cx="250" cy="200" rx="80" ry="32" stroke="#6B7CFF" stroke-width="1" fill="none" />
  <line x1="100" y1="200" x2="400" y2="200" stroke="#6B7CFF" stroke-width="1" />
  <line x1="250" y1="50" x2="250" y2="350" stroke="#6B7CFF" stroke-width="1" />
  
  <!-- 한국 -->
  <circle cx="330" cy="170" r="10" fill="#FF5470" />
  <text x="330" y="155" font-family="Arial" font-size="12" font-weight="bold" text-anchor="middle" fill="#FFFFFF">한국</text>
  
  <!-- 화살표 -->
  <path d="M330,170 Q250,150 170,210" stroke="#FF5470" stroke-width="3" fill="none" stroke-dasharray="5,5" />
  <polygon points="170,210 182,203 180,215" fill="#FF5470" />
  
  <!-- 세계 각국 -->
  <circle cx="170" cy="210" r="8" fill="#FFFFFF" />
  <text x="170" y="195" font-family="Arial" font-size="12" font-weight="bold" text-anchor="middle" fill="#FFFFFF">SE Asia</text>
  
  <circle cx="160" cy="140" r="6" fill="#FFFFFF" opacity="0.7" />
  <text x="160" y="125" font-family="Arial" font-size="10" text-anchor="middle" fill="#FFFFFF" opacity="0.7">US</text>
  
  <circle cx="300" cy="260" r="6" fill="#FFFFFF" opacity="0.7" />
  <text x="300" y="245" font-family="Arial" font-size="10" text-anchor="middle" fill="#FFFFFF" opacity="0.7">EU</text>
  
  <circle cx="350" cy="230" r="5" fill="#FFFFFF" opacity="0.7" />
  <text x="350" y="215" font-family="Arial" font-size="10" text-anchor="middle" fill="#FFFFFF" opacity="0.7">JP</text>
  
  <circle cx="190" cy="270" r="5" fill="#FFFFFF" opacity="0.6" />
  <text x="190" y="255" font-family="Arial" font-size="10" text-anchor="middle" fill="#FFFFFF" opacity="0.6">BR</text>
  
  <!-- 로고 -->
  <text x="250" y="370" font-family="Arial" font-size="14" font-weight="bold" text-anchor="middle" fill="#FFFFFF">COHETE.LAB Global Outbound</text>
</svg>