<svg width="500" height="400" viewBox="0 0 500 400" fill="none" xmlns="http://www.w3.org/2000/svg">
<circle cx="250" cy="200" r="170" fill="#1A1F36" fill-opacity="0.8"/>
<circle cx="250" cy="200" r="150" fill="#3E63DD" fill-opacity="0.05"/>
<circle cx="250" cy="200" r="100" fill="#3E63DD" fill-opacity="0.1"/>

<!-- Top Label -->
<rect x="150" y="70" width="200" height="40" rx="20" fill="#3E63DD"/>
<text x="250" y="97" text-anchor="middle" font-family="sans-serif" font-size="16" font-weight="600" fill="white">해외 → 한국 진출</text>

<!-- English Card -->
<g filter="url(#filter0_d)">
  <rect x="100" y="160" width="120" height="120" rx="24" fill="white"/>
  <rect x="120" y="190" width="80" height="60" rx="12" fill="#EDF2FF"/>
  <text x="160" y="225" text-anchor="middle" font-family="sans-serif" font-size="18" font-weight="600" fill="#3E63DD">영어</text>
</g>

<!-- Korean Card -->
<g filter="url(#filter1_d)">
  <rect x="280" y="160" width="120" height="120" rx="24" fill="white"/>
  <rect x="290" y="190" width="100" height="60" rx="12" fill="#EDF2FF"/>
  <text x="340" y="225" text-anchor="middle" font-family="sans-serif" font-size="18" font-weight="600" fill="#3E63DD">한국어</text>
</g>

<!-- Bottom Label -->
<rect x="130" y="310" width="240" height="40" rx="20" fill="#3E63DD"/>
<text x="250" y="335" text-anchor="middle" font-family="sans-serif" font-size="16" font-weight="600" fill="white">한국 인플루언서 마케팅</text>

<!-- Arrows -->
<path d="M250 120L250 150" stroke="#8899FF" stroke-width="3" stroke-linecap="round"/>
<path d="M250 120L240 130" stroke="#8899FF" stroke-width="3" stroke-linecap="round"/>
<path d="M250 120L260 130" stroke="#8899FF" stroke-width="3" stroke-linecap="round"/>

<path d="M250 290L250 320" stroke="#8899FF" stroke-width="3" stroke-linecap="round"/>
<path d="M250 290L240 300" stroke="#8899FF" stroke-width="3" stroke-linecap="round"/>
<path d="M250 290L260 300" stroke="#8899FF" stroke-width="3" stroke-linecap="round"/>

<!-- Connector Between Cards -->
<path d="M230 220L270 220" stroke="#8899FF" stroke-width="3" stroke-linecap="round" stroke-dasharray="6 4"/>

<!-- Drop Shadows -->
<defs>
  <filter id="filter0_d" x="90" y="154" width="140" height="140" filterUnits="userSpaceOnUse" color-interpolation-filters="sRGB">
    <feFlood flood-opacity="0" result="BackgroundImageFix"/>
    <feColorMatrix in="SourceAlpha" type="matrix" values="0 0 0 0 0 0 0 0 0 0 0 0 0 0 0 0 0 0 127 0"/>
    <feOffset dy="4"/>
    <feGaussianBlur stdDeviation="5"/>
    <feColorMatrix type="matrix" values="0 0 0 0 0 0 0 0 0 0 0 0 0 0 0 0 0 0 0.25 0"/>
    <feBlend mode="normal" in2="BackgroundImageFix" result="effect1_dropShadow"/>
    <feBlend mode="normal" in="SourceGraphic" in2="effect1_dropShadow" result="shape"/>
  </filter>
  <filter id="filter1_d" x="270" y="154" width="140" height="140" filterUnits="userSpaceOnUse" color-interpolation-filters="sRGB">
    <feFlood flood-opacity="0" result="BackgroundImageFix"/>
    <feColorMatrix in="SourceAlpha" type="matrix" values="0 0 0 0 0 0 0 0 0 0 0 0 0 0 0 0 0 0 127 0"/>
    <feOffset dy="4"/>
    <feGaussianBlur stdDeviation="5"/>
    <feColorMatrix type="matrix" values="0 0 0 0 0 0 0 0 0 0 0 0 0 0 0 0 0 0 0.25 0"/>
    <feBlend mode="normal" in2="BackgroundImageFix" result="effect1_dropShadow"/>
    <feBlend mode="normal" in="SourceGraphic" in2="effect1_dropShadow" result="shape"/>
  </filter>
</defs>

<!-- Decorative Elements -->
<circle cx="160" cy="170" r="5" fill="#3E63DD" fill-opacity="0.4"/>
<circle cx="340" cy="170" r="5" fill="#3E63DD" fill-opacity="0.4"/>
<circle cx="160" cy="270" r="5" fill="#3E63DD" fill-opacity="0.4"/>
<circle cx="340" cy="270" r="5" fill="#3E63DD" fill-opacity="0.4"/>
</svg>