<svg width="500" height="400" viewBox="0 0 500 400" fill="none" xmlns="http://www.w3.org/2000/svg">
<circle cx="250" cy="200" r="150" fill="#3E63DD" fill-opacity="0.1"/>
<path d="M220 170C220 156.193 231.193 145 245 145H374.625C388.432 145 399.625 156.193 399.625 170V230C399.625 243.807 388.432 255 374.625 255H245C231.193 255 220 243.807 220 230V170Z" fill="white"/>
<rect x="245" y="170" width="129.625" height="60" rx="8" fill="#3E63DD" fill-opacity="0.1"/>
<text x="309.8125" y="205" text-anchor="middle" font-family="sans-serif" font-size="14" fill="#3E63DD">영어</text>
<path d="M100 170C100 156.193 111.193 145 125 145H180C193.807 145 205 156.193 205 170V230C205 243.807 193.807 255 180 255H125C111.193 255 100 243.807 100 230V170Z" fill="white"/>
<rect x="125" y="170" width="55" height="60" rx="8" fill="#3E63DD" fill-opacity="0.1"/>
<text x="152.5" y="205" text-anchor="middle" font-family="sans-serif" font-size="14" fill="#3E63DD">한국어</text>
<path d="M232.5 100L232.5 125M232.5 125L222.5 115M232.5 125L242.5 115" stroke="#333333" stroke-width="2" stroke-linecap="round" stroke-linejoin="round"/>
<path d="M232.5 275L232.5 300M232.5 275L222.5 285M232.5 275L242.5 285" stroke="#333333" stroke-width="2" stroke-linecap="round" stroke-linejoin="round"/>
<rect x="150" y="70" width="165" height="30" rx="15" fill="#3E63DD"/>
<text x="232.5" y="90" text-anchor="middle" font-family="sans-serif" font-size="14" fill="white">한국 → 해외 진출</text>
<rect x="150" y="300" width="165" height="30" rx="15" fill="#3E63DD"/>
<text x="232.5" y="320" text-anchor="middle" font-family="sans-serif" font-size="14" fill="white">글로벌 인플루언서 마케팅</text>
</svg>