<svg width="500" height="400" viewBox="0 0 500 400" fill="none" xmlns="http://www.w3.org/2000/svg">
  <!-- Background -->
  <rect width="500" height="400" fill="#0F172A" fill-opacity="0.95"/>
  
  <!-- Earth graphic -->
  <g filter="url(#filter0_d)">
    <circle cx="250" cy="200" r="120" fill="url(#paint0_radial)" />
    
    <!-- Continents -->
    <path d="M310 165C318 158 328 154 334 166C340 178 355 175 360 167C365 159 370 155 378 162C386 169 390 180 380 188C370 196 368 208 358 210C348 212 340 205 335 195C330 185 320 185 313 192C306 199 295 200 290 190C285 180 302 172 310 165Z" fill="#96B668" opacity="0.8" />
    <path d="M222 138C232 130 245 128 255 135C265 142 278 139 285 130C292 121 305 125 310 135C315 145 325 148 335 145C345 142 355 148 350 160C345 172 330 175 320 170C310 165 298 168 292 178C286 188 275 190 265 185C255 180 245 182 235 190C225 198 215 195 212 185C209 175 212 146 222 138Z" fill="#BFA968" opacity="0.8" />
    <path d="M175 195C183 185 195 183 205 190C215 197 228 193 233 182C238 171 250 170 260 178C270 186 282 184 290 175C298 166 310 172 312 185C314 198 305 207 295 210C285 213 275 210 268 200C261 190 250 188 240 194C230 200 218 201 210 193C202 185 192 187 186 198C180 209 168 212 162 202C156 192 167 205 175 195Z" fill="#96B668" opacity="0.8" />
    
    <!-- Cloud layers -->
    <g opacity="0.5">
      <path d="M290 140C300 135 315 142 320 150C325 158 338 158 348 152C358 146 370 152 372 162C374 172 364 180 354 178C344 176 334 180 329 190C324 200 314 205 304 202C294 199 286 191 281 180C276 169 280 145 290 140Z" fill="white" />
      <path d="M180 170C190 162 205 165 215 175C225 185 240 182 248 172C256 162 270 165 275 177C280 189 270 200 260 203C250 206 240 202 232 192C224 182 212 180 200 187C188 194 173 192 168 180C163 168 170 178 180 170Z" fill="white" />
    </g>
    
    <!-- Atmosphere glow -->
    <circle cx="250" cy="200" r="118" stroke="#4FB9FC" stroke-width="4" stroke-opacity="0.3" />
    <circle cx="250" cy="200" r="124" stroke="#4FB9FC" stroke-width="2" stroke-opacity="0.2" />
  </g>
  
  <!-- Korea outline and marker -->
  <g filter="url(#filter_korea)">
    <path d="M340 185C340.5 184 341.5 183.5 342 183C342.5 182.5 343 182 343.5 181.5C344 181 344 180.5 344.5 180C345 179.5 345.2 178.5 345.5 178C345.8 177.5 346 177 346 176.5C346 176 345.8 175.5 345.5 175C345.2 174.5 345 174 344.5 173.5C344 173 343.5 172.5 343 172.5C342.5 172.5 342 172.5 341.5 172.5C341 172.5 340.5 172.5 340 173C339.5 173.5 339 174 338.5 174.5C338 175 337.5 175.5 337 176C336.5 176.5 336 177 336 177.5C336 178 336 178.5 336 179C336 179.5 336 180 336.5 180.5C337 181 337.5 181.5 338 182C338.5 182.5 339 183 339.5 183.5C340 184 339.5 186 340 185Z" fill="#FF5470" stroke="#FF5470" stroke-width="1.5"/>
    <circle cx="341" cy="180" r="6" fill="#FF5470" fill-opacity="0.3" />
    <circle cx="341" cy="180" r="10" stroke="#FF5470" stroke-width="1.5" stroke-opacity="0.5" stroke-dasharray="2 2" />
  </g>
  
  <!-- Global connection lines - now pointing toward Korea -->
  <g stroke="#3E63DD" stroke-width="1.5" stroke-dasharray="3 3" stroke-opacity="0.8">
    <path d="M341 180C420 100 440 90 460 85" />
    <path d="M341 180C410 220 430 235 450 245" />
    <path d="M341 180C375 260 395 280 405 300" />
    <path d="M341 180C270 230 240 250 210 270" />
    <path d="M341 180C260 150 230 140 170 125" />
    <path d="M341 180C290 120 275 105 240 75" />
  </g>
  
  <!-- Connection dots with marker pins -->
  <g>
    <circle cx="460" cy="85" r="4" fill="#3E63DD" />
    <path d="M460 85L464 80L460 78L456 80L460 85Z" fill="#3E63DD" />
  </g>
  <g>
    <circle cx="450" cy="245" r="4" fill="#3E63DD" />
    <path d="M450 245L454 240L450 238L446 240L450 245Z" fill="#3E63DD" />
  </g>
  <g>
    <circle cx="405" cy="300" r="4" fill="#3E63DD" />
    <path d="M405 300L409 295L405 293L401 295L405 300Z" fill="#3E63DD" />
  </g>
  <g>
    <circle cx="210" cy="270" r="4" fill="#3E63DD" />
    <path d="M210 270L214 265L210 263L206 265L210 270Z" fill="#3E63DD" />
  </g>
  <g>
    <circle cx="170" cy="125" r="4" fill="#3E63DD" />
    <path d="M170 125L174 120L170 118L166 120L170 125Z" fill="#3E63DD" />
  </g>
  <g>
    <circle cx="240" cy="75" r="4" fill="#3E63DD" />
    <path d="M240 75L244 70L240 68L236 70L240 75Z" fill="#3E63DD" />
  </g>
  
  <!-- Labels -->
  <rect x="150" y="50" width="200" height="40" rx="20" fill="#3E63DD" />
  <text x="250" y="75" text-anchor="middle" font-family="sans-serif" font-size="16" font-weight="600" fill="white">해외 → 한국 진출</text>
  
  <rect x="130" y="320" width="240" height="40" rx="20" fill="#3E63DD" />
  <text x="250" y="345" text-anchor="middle" font-family="sans-serif" font-size="16" font-weight="600" fill="white">한국 인플루언서 마케팅</text>

  <!-- Rocket icon coming toward Korea -->
  <g transform="translate(410, 150) rotate(135)">
    <rect x="0" y="0" width="40" height="60" rx="5" fill="#3E63DD" />
    <path d="M0 40L-10 60L0 55L10 60L0 40Z" fill="#3E63DD" />
    <ellipse cx="20" cy="15" rx="12" ry="8" fill="#F8FAFF" />
    <rect x="15" y="30" width="10" height="20" fill="#FF5470" />
    <path d="M-6 60L0 70L6 60" fill="#FF5470" />
    <ellipse cx="20" cy="15" rx="5" ry="3" fill="#7786D3" />
  </g>
  
  <!-- Flame effects -->
  <g transform="translate(410, 150) rotate(135)">
    <path d="M-5 61C-5 66 0 76 5 61" stroke="#FF8C42" stroke-width="2" />
    <path d="M-3 63C-3 68 0 73 3 63" stroke="#FFDD4A" stroke-width="2" />
  </g>
  
  <!-- Defs -->
  <defs>
    <filter id="filter0_d" x="120" y="70" width="260" height="260" filterUnits="userSpaceOnUse" color-interpolation-filters="sRGB">
      <feFlood flood-opacity="0" result="BackgroundImageFix"/>
      <feColorMatrix in="SourceAlpha" type="matrix" values="0 0 0 0 0 0 0 0 0 0 0 0 0 0 0 0 0 0 127 0"/>
      <feOffset/>
      <feGaussianBlur stdDeviation="5"/>
      <feColorMatrix type="matrix" values="0 0 0 0 0.271 0 0 0 0 0.725 0 0 0 0 0.988 0 0 0 0.5 0"/>
      <feBlend mode="normal" in2="BackgroundImageFix" result="effect1_dropShadow"/>
      <feBlend mode="normal" in="SourceGraphic" in2="effect1_dropShadow" result="shape"/>
    </filter>
    
    <filter id="filter_korea" x="325" y="165" width="35" height="35" filterUnits="userSpaceOnUse" color-interpolation-filters="sRGB">
      <feFlood flood-opacity="0" result="BackgroundImageFix"/>
      <feColorMatrix in="SourceAlpha" type="matrix" values="0 0 0 0 0 0 0 0 0 0 0 0 0 0 0 0 0 0 127 0"/>
      <feOffset/>
      <feGaussianBlur stdDeviation="2"/>
      <feColorMatrix type="matrix" values="0 0 0 0 1 0 0 0 0 0.325 0 0 0 0 0.435 0 0 0 0.8 0"/>
      <feBlend mode="normal" in2="BackgroundImageFix" result="effect1_dropShadow"/>
      <feBlend mode="normal" in="SourceGraphic" in2="effect1_dropShadow" result="shape"/>
    </filter>
    
    <radialGradient id="paint0_radial" cx="0" cy="0" r="1" gradientUnits="userSpaceOnUse" gradientTransform="translate(250 200) rotate(90) scale(120)">
      <stop offset="0" stop-color="#193C6D"/>
      <stop offset="1" stop-color="#0F172A"/>
    </radialGradient>
  </defs>
</svg>