<svg width="500" height="400" viewBox="0 0 500 400" fill="none" xmlns="http://www.w3.org/2000/svg">
<circle cx="250" cy="200" r="150" fill="#22C55E" fill-opacity="0.1"/>
<path d="M100 170C100 156.193 111.193 145 125 145H254.625C268.432 145 279.625 156.193 279.625 170V230C279.625 243.807 268.432 255 254.625 255H125C111.193 255 100 243.807 100 230V170Z" fill="white"/>
<rect x="125" y="170" width="129.625" height="60" rx="8" fill="#3E63DD" fill-opacity="0.1"/>
<text x="189.8125" y="205" text-anchor="middle" font-family="sans-serif" font-size="14" fill="#3E63DD">영어</text>
<path d="M295 170C295 156.193 306.193 145 320 145H375C388.807 145 400 156.193 400 170V230C400 243.807 388.807 255 375 255H320C306.193 255 295 243.807 295 230V170Z" fill="white"/>
<rect x="320" y="170" width="55" height="60" rx="8" fill="#22C55E" fill-opacity="0.1"/>
<text x="347.5" y="205" text-anchor="middle" font-family="sans-serif" font-size="14" fill="#22C55E">한국어</text>
<path d="M267.5 100L267.5 125M267.5 125L257.5 115M267.5 125L277.5 115" stroke="#333333" stroke-width="2" stroke-linecap="round" stroke-linejoin="round"/>
<path d="M267.5 275L267.5 300M267.5 275L257.5 285M267.5 275L277.5 285" stroke="#333333" stroke-width="2" stroke-linecap="round" stroke-linejoin="round"/>
<rect x="185" y="70" width="165" height="30" rx="15" fill="#22C55E"/>
<text x="267.5" y="90" text-anchor="middle" font-family="sans-serif" font-size="14" fill="white">해외 → 한국 진출</text>
<rect x="185" y="300" width="165" height="30" rx="15" fill="#3E63DD"/>
<text x="267.5" y="320" text-anchor="middle" font-family="sans-serif" font-size="14" fill="white">한국 인플루언서 마케팅</text>
</svg>