<?xml version="1.0" encoding="UTF-8"?>
<svg width="100" height="75" viewBox="0 0 100 75" xmlns="http://www.w3.org/2000/svg">
    <!-- 배경 -->
    <rect width="100" height="75" fill="#FFFFFF"/>
    
    <!-- 줄무늬 -->
    <rect y="0" width="100" height="5.77" fill="#B22234"/>
    <rect y="11.54" width="100" height="5.77" fill="#B22234"/>
    <rect y="23.08" width="100" height="5.77" fill="#B22234"/>
    <rect y="34.62" width="100" height="5.77" fill="#B22234"/>
    <rect y="46.15" width="100" height="5.77" fill="#B22234"/>
    <rect y="57.69" width="100" height="5.77" fill="#B22234"/>
    <rect y="69.23" width="100" height="5.77" fill="#B22234"/>
    
    <!-- 파란색 영역 -->
    <rect width="50" height="40.38" fill="#3C3B6E"/>
    
    <!-- 별 -->
    <g fill="#FFFFFF">
        <!-- 행 1 -->
        <polygon points="7.5,6.73 8.47,9.7 5.82,7.96 9.18,7.96 6.53,9.7" />
        <polygon points="17.5,6.73 18.47,9.7 15.82,7.96 19.18,7.96 16.53,9.7" />
        <polygon points="27.5,6.73 28.47,9.7 25.82,7.96 29.18,7.96 26.53,9.7" />
        <polygon points="37.5,6.73 38.47,9.7 35.82,7.96 39.18,7.96 36.53,9.7" />
        
        <!-- 행 2 -->
        <polygon points="12.5,13.46 13.47,16.43 10.82,14.69 14.18,14.69 11.53,16.43" />
        <polygon points="22.5,13.46 23.47,16.43 20.82,14.69 24.18,14.69 21.53,16.43" />
        <polygon points="32.5,13.46 33.47,16.43 30.82,14.69 34.18,14.69 31.53,16.43" />
        <polygon points="42.5,13.46 43.47,16.43 40.82,14.69 44.18,14.69 41.53,16.43" />
        
        <!-- 행 3 -->
        <polygon points="7.5,20.19 8.47,23.16 5.82,21.42 9.18,21.42 6.53,23.16" />
        <polygon points="17.5,20.19 18.47,23.16 15.82,21.42 19.18,21.42 16.53,23.16" />
        <polygon points="27.5,20.19 28.47,23.16 25.82,21.42 29.18,21.42 26.53,23.16" />
        <polygon points="37.5,20.19 38.47,23.16 35.82,21.42 39.18,21.42 36.53,23.16" />
        
        <!-- 행 4 -->
        <polygon points="12.5,26.92 13.47,29.89 10.82,28.15 14.18,28.15 11.53,29.89" />
        <polygon points="22.5,26.92 23.47,29.89 20.82,28.15 24.18,28.15 21.53,29.89" />
        <polygon points="32.5,26.92 33.47,29.89 30.82,28.15 34.18,28.15 31.53,29.89" />
        <polygon points="42.5,26.92 43.47,29.89 40.82,28.15 44.18,28.15 41.53,29.89" />
        
        <!-- 행 5 -->
        <polygon points="7.5,33.65 8.47,36.62 5.82,34.88 9.18,34.88 6.53,36.62" />
        <polygon points="17.5,33.65 18.47,36.62 15.82,34.88 19.18,34.88 16.53,36.62" />
        <polygon points="27.5,33.65 28.47,36.62 25.82,34.88 29.18,34.88 26.53,36.62" />
        <polygon points="37.5,33.65 38.47,36.62 35.82,34.88 39.18,34.88 36.53,36.62" />
    </g>
</svg>